REM DIRINDEX 1\2,1\3,1\4,1\5
REM DIRNAME folder01,folder02,folder03,folder04,folder05
TITLE ""
FILE "1Q_t_2021-2030.mp3" MP3
  TRACK 01 AUDIO
    TITLE "3:cjc004_6971"
    INDEX 01 00:00:00
  TRACK 02 AUDIO
    TITLE "0:"
    INDEX 01 00:00:72
  TRACK 03 AUDIO
    TITLE "4:cjc004_6972"
    INDEX 01 00:01:22
  TRACK 04 AUDIO
    TITLE "0:"
    INDEX 01 00:02:57
  TRACK 05 AUDIO
    TITLE "5:cjc004_6973"
    INDEX 01 00:03:06
  TRACK 06 AUDIO
    TITLE "0:"
    INDEX 01 00:07:13
  TRACK 07 AUDIO
    TITLE "3:cjc004_6974"
    INDEX 01 00:07:64
  TRACK 08 AUDIO
    TITLE "0:"
    INDEX 01 00:08:73
  TRACK 09 AUDIO
    TITLE "4:cjc004_6975"
    INDEX 01 00:09:20
  TRACK 10 AUDIO
    TITLE "0:"
    INDEX 01 00:10:51
  TRACK 11 AUDIO
    TITLE "5:cjc004_6976"
    INDEX 01 00:11:01
  TRACK 12 AUDIO
    TITLE "0:"
    INDEX 01 00:16:04
  TRACK 13 AUDIO
    TITLE "3:cjc004_6977"
    INDEX 01 00:16:61
  TRACK 14 AUDIO
    TITLE "0:"
    INDEX 01 00:18:01
  TRACK 15 AUDIO
    TITLE "4:cjc004_6978"
    INDEX 01 00:18:33
  TRACK 16 AUDIO
    TITLE "0:"
    INDEX 01 00:19:65
  TRACK 17 AUDIO
    TITLE "5:cjc004_6979"
    INDEX 01 00:20:14
  TRACK 18 AUDIO
    TITLE "0:"
    INDEX 01 00:24:69
  TRACK 19 AUDIO
    TITLE "3:cjc004_6980"
    INDEX 01 00:25:48
  TRACK 20 AUDIO
    TITLE "0:"
    INDEX 01 00:26:60
  TRACK 21 AUDIO
    TITLE "4:cjc004_6981"
    INDEX 01 00:27:12
  TRACK 22 AUDIO
    TITLE "0:"
    INDEX 01 00:28:35
  TRACK 23 AUDIO
    TITLE "5:cjc004_6982"
    INDEX 01 00:28:60
  TRACK 24 AUDIO
    TITLE "0:"
    INDEX 01 00:34:32
  TRACK 25 AUDIO
    TITLE "3:cjc004_6983"
    INDEX 01 00:35:12
  TRACK 26 AUDIO
    TITLE "0:"
    INDEX 01 00:36:38
  TRACK 27 AUDIO
    TITLE "4:cjc004_6984"
    INDEX 01 00:36:60
  TRACK 28 AUDIO
    TITLE "0:"
    INDEX 01 00:37:69
  TRACK 29 AUDIO
    TITLE "5:cjc004_6985"
    INDEX 01 00:38:20
  TRACK 30 AUDIO
    TITLE "0:"
    INDEX 01 00:42:41
  TRACK 31 AUDIO
    TITLE "3:cjc004_6986"
    INDEX 01 00:43:21
  TRACK 32 AUDIO
    TITLE "0:"
    INDEX 01 00:44:36
  TRACK 33 AUDIO
    TITLE "4:cjc004_6987"
    INDEX 01 00:44:60
  TRACK 34 AUDIO
    TITLE "0:"
    INDEX 01 00:46:11
  TRACK 35 AUDIO
    TITLE "5:cjc004_6988"
    INDEX 01 00:46:33
  TRACK 36 AUDIO
    TITLE "0:"
    INDEX 01 00:51:15
  TRACK 37 AUDIO
    TITLE "3:cjc004_6989"
    INDEX 01 00:51:73
  TRACK 38 AUDIO
    TITLE "0:"
    INDEX 01 00:53:21
  TRACK 39 AUDIO
    TITLE "4:cjc004_6990"
    INDEX 01 00:53:53
  TRACK 40 AUDIO
    TITLE "0:"
    INDEX 01 00:54:72
  TRACK 41 AUDIO
    TITLE "5:cjc004_6991"
    INDEX 01 00:55:22
  TRACK 42 AUDIO
    TITLE "0:"
    INDEX 01 00:59:47
  TRACK 43 AUDIO
    TITLE "3:cjc004_6992"
    INDEX 01 01:00:29
  TRACK 44 AUDIO
    TITLE "0:"
    INDEX 01 01:01:33
  TRACK 45 AUDIO
    TITLE "4:cjc004_6993"
    INDEX 01 01:01:60
  TRACK 46 AUDIO
    TITLE "0:"
    INDEX 01 01:03:63
  TRACK 47 AUDIO
    TITLE "5:cjc004_6994"
    INDEX 01 01:04:17
  TRACK 48 AUDIO
    TITLE "0:"
    INDEX 01 01:08:11
  TRACK 49 AUDIO
    TITLE "3:cjc004_6995"
    INDEX 01 01:08:64
  TRACK 50 AUDIO
    TITLE "0:"
    INDEX 01 01:10:08
  TRACK 51 AUDIO
    TITLE "4:cjc004_6996"
    INDEX 01 01:10:31
  TRACK 52 AUDIO
    TITLE "0:"
    INDEX 01 01:11:56
  TRACK 53 AUDIO
    TITLE "5:cjc004_6997"
    INDEX 01 01:12:09
  TRACK 54 AUDIO
    TITLE "0:"
    INDEX 01 01:16:22
  TRACK 55 AUDIO
    TITLE "3:cjc004_6998"
    INDEX 01 01:16:73
  TRACK 56 AUDIO
    TITLE "0:"
    INDEX 01 01:18:06
  TRACK 57 AUDIO
    TITLE "4:cjc004_6999"
    INDEX 01 01:18:37
  TRACK 58 AUDIO
    TITLE "0:"
    INDEX 01 01:19:48
  TRACK 59 AUDIO
    TITLE "5:cjc004_7000"
    INDEX 01 01:20:00
  TRACK 60 AUDIO
    TITLE "0:"
    INDEX 01 01:24:24
